<svg width="14" height="14" viewBox="0 0 14 14" fill="none" xmlns="http://www.w3.org/2000/svg">
<path d="M3.44783 12.0814C2.21308 11.1564 1.35403 9.81655 1.0288 8.30842C0.703575 6.8003 0.934073 5.22546 1.67786 3.8738C2.42165 2.52214 3.62867 1.48466 5.07671 0.952329C6.52475 0.420001 8.11635 0.428664 9.55851 0.976724C11.0007 1.52478 12.1963 2.57535 12.9254 3.93502C13.6544 5.2947 13.8677 6.87196 13.5261 8.37645C13.1845 9.88094 12.3109 11.2114 11.0661 12.1229C9.95802 12.9343 8.62214 13.3651 7.25752 13.3592C6.97794 13.358 6.77075 13.1112 6.79404 12.8326C6.81732 12.554 7.06237 12.3495 7.34194 12.3465C8.46279 12.3347 9.55684 11.9732 10.468 11.306C11.5158 10.5387 12.2512 9.41874 12.5388 8.15226C12.8263 6.88577 12.6468 5.55803 12.0331 4.41346C11.4194 3.26888 10.4129 2.38451 9.19884 1.92315C7.98483 1.4618 6.64502 1.4545 5.42605 1.90262C4.20709 2.35073 3.19102 3.22409 2.5649 4.36192C1.93877 5.49975 1.74474 6.82545 2.01852 8.09499C2.29229 9.36453 3.01545 10.4924 4.05486 11.2711L3.44783 12.0814Z" fill="url(#paint0_angular_2042_1480)"/>
<defs>
<radialGradient id="paint0_angular_2042_1480" cx="0" cy="0" r="1" gradientUnits="userSpaceOnUse" gradientTransform="translate(7.28498 6.95928) rotate(94.4245) scale(5.9397)">
<stop stop-color="white"/>
<stop offset="0.921875" stop-color="white" stop-opacity="0"/>
</radialGradient>
</defs>
</svg>
